<?xml version="1.0" encoding="UTF-8" standalone="no"?>
<svg
   xmlns:dc="http://purl.org/dc/elements/1.1/"
   xmlns:cc="http://creativecommons.org/ns#"
   xmlns:rdf="http://www.w3.org/1999/02/22-rdf-syntax-ns#"
   xmlns:svg="http://www.w3.org/2000/svg"
   xmlns="http://www.w3.org/2000/svg"
   xmlns:sodipodi="http://sodipodi.sourceforge.net/DTD/sodipodi-0.dtd"
   xmlns:inkscape="http://www.inkscape.org/namespaces/inkscape"
   width="1487.1899"
   height="1052.3622"
   id="svg3018"
   version="1.1"
   inkscape:version="0.48.4 r9939"
   sodipodi:docname="GLaNET.svg">
  <defs
     id="defs3049" />
  <sodipodi:namedview
     pagecolor="#ffffff"
     bordercolor="#666666"
     borderopacity="1"
     objecttolerance="10"
     gridtolerance="10"
     guidetolerance="10"
     inkscape:pageopacity="0"
     inkscape:pageshadow="2"
     inkscape:window-width="1920"
     inkscape:window-height="1058"
     id="namedview3047"
     showgrid="false"
     inkscape:zoom="0.74552914"
     inkscape:cx="859.18549"
     inkscape:cy="583.55337"
     inkscape:window-x="-8"
     inkscape:window-y="-8"
     inkscape:window-maximized="1"
     inkscape:current-layer="g3188" />
  <title
     id="title3020">Network</title>
  <metadata
     id="metadata4057">image/svg+xml<rdf:RDF>
  <cc:Work
     rdf:about="">
    <dc:format>image/svg+xml</dc:format>
    <dc:type
       rdf:resource="http://purl.org/dc/dcmitype/StillImage" />
  </cc:Work>
</rdf:RDF>
</metadata>
  <g
     id="g3023">
    <title
       id="title3025">Layer 1</title>
    <g
       id="svg_1">
      <g
         id="g3051"
         transform="translate(-3.4e-5,-2.4e-5)"
         style="fill:#aaccee;stroke:#003366">
        <g
           id="g3188">
          <path
             inkscape:connector-curvature="0"
             stroke-miterlimit="4"
             id="path4214"
             d="m 737.94653,728.70461 c 0,-48.81555 -39.57281,-88.38834 -88.38836,-88.38834 -48.81549,0 -88.38837,39.57279 -88.38837,88.38834 0,48.81555 39.57287,88.38835 88.38837,88.38835 48.81555,0 88.38836,-39.5728 88.38836,-88.38835 z"
             style="fill:#336699;stroke:#003366;stroke-width:5;stroke-miterlimit:4" />
          <path
             inkscape:connector-curvature="0"
             stroke-miterlimit="4"
             id="path4214-9"
             d="m 312.61755,858.57659 c 0,-48.81556 -39.57281,-88.38834 -88.38838,-88.38834 -48.81552,0 -88.38833,39.57278 -88.38833,88.38834 0,48.81555 39.57281,88.38835 88.38833,88.38835 48.81557,0 88.38838,-39.5728 88.38838,-88.38835 z"
             style="fill:#336699;stroke:#003366;stroke-width:5;stroke-miterlimit:4" />
          <path
             inkscape:connector-curvature="0"
             stroke-miterlimit="4"
             id="path4214-1"
             d="m 372.37763,240.96053 c 0,-48.81555 -39.57282,-88.38831 -88.38837,-88.38831 -48.81551,0 -88.38832,39.57276 -88.38832,88.38831 0,48.81555 39.57281,88.38843 88.38832,88.38843 48.81555,0 88.38837,-39.57288 88.38837,-88.38843 z"
             style="fill:#b3defd;stroke:#003366;stroke-width:5;stroke-miterlimit:4" />
          <path
             inkscape:connector-curvature="0"
             stroke-miterlimit="4"
             id="path4214-8"
             d="m 1142.3676,629.57762 c 0,-48.81555 -39.5728,-88.38833 -88.3884,-88.38833 -48.8155,0 -88.38832,39.57278 -88.38832,88.38833 0,48.81556 39.57282,88.38834 88.38832,88.38834 48.8156,0 88.3884,-39.57278 88.3884,-88.38834 z"
             style="fill:#336699;stroke:#003366;stroke-width:5;stroke-miterlimit:4" />
          <path
             inkscape:connector-curvature="0"
             stroke-miterlimit="4"
             id="path4214-8-8"
             d="m 837.44855,340.36659 c 0,-48.81555 -39.57282,-88.3883 -88.38837,-88.3883 -48.81555,0 -88.38831,39.57275 -88.38831,88.38831 0,48.81555 39.57276,88.38836 88.38831,88.38836 48.81555,0 88.38837,-39.57281 88.38837,-88.38836 z"
             style="fill:#b3defd;stroke:#003366;stroke-width:5;stroke-miterlimit:4" />
          <path
             inkscape:connector-curvature="0"
             stroke-miterlimit="4"
             id="path4214-7"
             d="m 1257.6135,160.88253 c 0,-48.81556 -39.5727,-88.38831 -88.3883,-88.38831 -48.8155,0 -88.3884,39.57275 -88.3884,88.38831 0,48.81555 39.5729,88.38842 88.3884,88.38842 48.8156,0 88.3883,-39.57287 88.3883,-88.38842 z"
             style="fill:#b3defd;stroke:#003366;stroke-width:5;stroke-miterlimit:4" />
          <path
             inkscape:connector-curvature="0"
             stroke-miterlimit="4"
             id="path4214-83"
             d="m 1339.4656,887.0916 c 0,-48.81555 -39.5729,-88.38833 -88.3885,-88.38833 -48.8155,0 -88.3883,39.57278 -88.3883,88.38833 0,48.81555 39.5728,88.38835 88.3883,88.38835 48.8156,0 88.3885,-39.5728 88.3885,-88.38835 z"
             style="fill:#003366;stroke:#003366;stroke-width:5;stroke-miterlimit:4" />
          <path
             style="fill:#aaccee;stroke:#003366;stroke-width:5;stroke-linecap:round;stroke-miterlimit:4"
             inkscape:connector-curvature="0"
             stroke-miterlimit="4"
             id="path6468"
             d="M 320.05975,831.06372 556.1579,762.37438" />
          <path
             style="fill:#aaccee;stroke:#003366;stroke-width:5;stroke-linecap:round;stroke-miterlimit:4"
             inkscape:connector-curvature="0"
             stroke-miterlimit="4"
             id="path6470"
             d="m 744.19476,699.12841 210.88428,-49.1836" />
          <path
             style="fill:#aaccee;stroke:#003366;stroke-width:5;stroke-linecap:round;stroke-miterlimit:4"
             inkscape:connector-curvature="0"
             stroke-miterlimit="4"
             id="path6472"
             d="m 1113.3555,707.96386 78.6208,99.8981" />
          <path
             style="fill:#aaccee;stroke:#003366;stroke-width:5;stroke-linecap:round;stroke-miterlimit:4"
             inkscape:connector-curvature="0"
             stroke-miterlimit="4"
             id="path6474"
             d="m 666.92664,631.32781 57.083,-194.6572" />
          <path
             style="fill:#aaccee;stroke:#003366;stroke-width:5;stroke-linecap:round;stroke-miterlimit:4"
             inkscape:connector-curvature="0"
             stroke-miterlimit="4"
             id="path6476"
             d="M 988.45081,554.88201 828.0882,399.12056" />
          <path
             style="fill:#aaccee;stroke:#003366;stroke-width:5;stroke-linecap:round;stroke-miterlimit:4"
             inkscape:connector-curvature="0"
             stroke-miterlimit="4"
             id="path6478"
             d="M 381.92227,260.90425 652.14258,321.2726" />
          <path
             style="fill:#aaccee;stroke:#003366;stroke-width:5;stroke-linecap:round;stroke-miterlimit:4"
             inkscape:connector-curvature="0"
             stroke-miterlimit="4"
             id="path6480"
             d="M 830.37299,283.49105 1073.0784,184.9305" />
          <path
             style="fill:#aaccee;stroke:#003366;stroke-width:5;stroke-linecap:round;stroke-miterlimit:4"
             inkscape:connector-curvature="0"
             stroke-miterlimit="4"
             id="path6482"
             d="M 662.211,386.44362 276.3316,773.55504" />
          <path
             style="fill:#aaccee;stroke:#003366;stroke-width:5;stroke-linecap:round;stroke-miterlimit:4"
             inkscape:connector-curvature="0"
             stroke-miterlimit="4"
             id="path6484"
             d="M 572.02093,669.02782 329.7507,329.32851" />
          <path
             style="fill:#aaccee;stroke:#003366;stroke-width:5;stroke-linecap:round;stroke-miterlimit:4"
             inkscape:connector-curvature="0"
             stroke-miterlimit="4"
             id="path6486"
             d="M 741.06738,768.622 1152.2552,873.16127" />
          <path
             style="fill:#aaccee;stroke:#003366;stroke-width:5;stroke-linecap:round;stroke-miterlimit:4"
             inkscape:connector-curvature="0"
             stroke-miterlimit="4"
             id="path6490"
             d="m 1241.2133,786.40251 -54.1116,-527.858" />
          <path
             style="fill:#aaccee;stroke:#003366;stroke-width:5;stroke-linecap:round;stroke-miterlimit:4"
             inkscape:connector-curvature="0"
             stroke-miterlimit="4"
             id="path6492"
             d="m 1084.0642,536.32955 48.9259,-282.98279" />
          <g
             style="font-size:144px;font-style:normal;font-variant:normal;font-weight:normal;font-stretch:normal;line-height:125%;letter-spacing:0px;word-spacing:0px;fill:#003366;fill-opacity:1;stroke:none;font-family:Trebuchet MS;-inkscape-font-specification:Trebuchet MS"
             id="text3072">
            <path
               d="m 315.67288,196.62857 -5.83594,11.60156 c -7.07819,-5.24991 -14.01568,-7.8749 -20.8125,-7.875 -10.78129,1e-4 -19.28909,3.79697 -25.52343,11.39063 -6.2344,7.59382 -9.35159,17.6485 -9.35157,30.16406 -2e-5,11.90629 3.05857,21.49222 9.17579,28.75781 6.11715,7.26564 14.44917,10.89845 24.99609,10.89844 7.49994,10e-6 13.57024,-2.24999 18.21094,-6.75 l 0,-24.11719 -14.27344,0 0,-11.95312 28.33594,0 0,44.85937 c -3.75009,3.18751 -8.97664,5.75391 -15.67969,7.69922 -6.70319,1.94531 -13.21881,2.91797 -19.54688,2.91797 -14.20316,0 -25.41799,-4.8164 -33.64453,-14.44922 -8.22657,-9.63279 -12.33985,-22.44137 -12.33984,-38.42578 -10e-6,-15.93743 4.51171,-28.8632 13.53516,-38.77734 9.02341,-9.91397 21.19917,-14.87099 36.52734,-14.8711 10.73431,1.1e-4 19.47649,2.97667 26.22656,8.92969 z"
               style="fill:#003366;font-family:Trebuchet MS;-inkscape-font-specification:Trebuchet MS"
               id="path3045" />
          </g>
          <g
             style="font-size:144px;font-style:normal;font-variant:normal;font-weight:normal;font-stretch:normal;line-height:125%;letter-spacing:0px;word-spacing:0px;fill:#003366;fill-opacity:1;stroke:none;font-family:Trebuchet MS;-inkscape-font-specification:Trebuchet MS"
             id="text3072-1">
            <path
               d="m 722.75549,389.87054 0,-103.00781 14.0625,0 0,90.35156 46.54688,0 0,12.65625 z"
               style="fill:#003366;font-family:Trebuchet MS;-inkscape-font-specification:Trebuchet MS"
               id="path3042" />
          </g>
          <g
             style="font-size:144px;font-style:normal;font-variant:normal;font-weight:normal;font-stretch:normal;line-height:125%;letter-spacing:0px;word-spacing:0px;fill:#b3defd;fill-opacity:1;stroke:none;font-family:Trebuchet MS;-inkscape-font-specification:Trebuchet MS"
             id="text3072-4">
            <path
               d="m 255.4128,910.78363 -53.22657,-75.30469 0,73.89844 -13.35937,0 0,-103.00781 5.625,0 51.82031,71.22656 0,-71.22656 13.35938,0 0,104.41406 z"
               style="fill:#b3defd;font-family:Trebuchet MS;-inkscape-font-specification:Trebuchet MS"
               id="path3033" />
          </g>
          <g
             style="font-size:144px;font-style:normal;font-variant:normal;font-weight:normal;font-stretch:normal;line-height:125%;letter-spacing:0px;word-spacing:0px;fill:#003366;fill-opacity:1;stroke:none;font-family:Trebuchet MS;-inkscape-font-specification:Trebuchet MS"
             id="text3072-9">
            <path
               d="m 1183.4282,189.88649 c -5.3438,6.70313 -13.5235,10.05469 -24.539,10.05469 -5.9063,0 -11.0274,-2.14453 -15.3633,-6.4336 -4.336,-4.28905 -6.5039,-9.62108 -6.5039,-15.99609 0,-7.6406 3.3398,-14.09762 10.0195,-19.37109 6.6797,-5.2734 15.1992,-7.91011 25.5586,-7.91016 2.8125,5e-5 6,0.60942 9.5625,1.82812 -1e-4,-12.18744 -5.4375,-18.28118 -16.3125,-18.28125 -8.3438,7e-5 -14.7656,2.25007 -19.2656,6.75 l -5.625,-11.17968 c 2.5312,-2.06243 6.0351,-3.83196 10.5117,-5.3086 4.4765,-1.47648 8.7539,-2.21476 12.832,-2.21484 10.9219,8e-5 18.8554,2.48445 23.8008,7.45312 4.9453,4.96882 7.4179,12.86725 7.418,23.69532 l 0,27 c -10e-5,6.60938 1.9687,11.01563 5.9062,13.21875 l 0,6.67968 c -5.4375,0 -9.5039,-0.77343 -12.1992,-2.32031 -2.6954,-1.54687 -4.629,-4.10156 -5.8008,-7.66406 z m -1.2656,-28.33594 c -4.2188,-0.93746 -7.1719,-1.40621 -8.8594,-1.40625 -6.75,4e-5 -12.2578,1.73441 -16.5234,5.20313 -4.2657,3.46878 -6.3985,7.57034 -6.3985,12.30468 0,7.82814 4.6172,11.7422 13.8516,11.74219 6.75,1e-5 12.7265,-3.21092 17.9297,-9.63281 z"
               style="fill:#003366;font-family:Trebuchet MS;-inkscape-font-specification:Trebuchet MS"
               id="path3039" />
          </g>
          <g
             style="font-size:144px;font-style:normal;font-variant:normal;font-weight:normal;font-stretch:normal;line-height:125%;letter-spacing:0px;word-spacing:0px;fill:#b3defd;fill-opacity:1;stroke:none;font-family:Trebuchet MS;-inkscape-font-specification:Trebuchet MS"
             id="text3072-8">
            <path
               d="m 632.85895,689.85693 0,28.61719 34.03125,0 0,11.95313 -34.03125,0 0,37.125 46.6875,0 0,12.65625 -60.75,0 0,-103.00782 61.52344,0 0,12.65625 z"
               style="fill:#b3defd;font-family:Trebuchet MS;-inkscape-font-specification:Trebuchet MS"
               id="path3036" />
          </g>
          <g
             style="font-size:144px;font-style:normal;font-variant:normal;font-weight:normal;font-stretch:normal;line-height:125%;letter-spacing:0px;word-spacing:0px;fill:#b3defd;fill-opacity:1;stroke:none;font-family:Trebuchet MS;-inkscape-font-specification:Trebuchet MS"
             id="text3072-8-2">
            <path
               d="m 1060.2723,590.72998 0,90.35156 -14.0625,0 0,-90.35156 -32.7656,0 0,-12.65625 81.0703,0 0,12.65625 z"
               style="fill:#b3defd;font-family:Trebuchet MS;-inkscape-font-specification:Trebuchet MS"
               id="path3030" />
          </g>
          <g
             style="font-size:144px;font-style:normal;font-variant:normal;font-weight:normal;font-stretch:normal;line-height:125%;letter-spacing:0px;word-spacing:0px;fill:#6699cc;fill-opacity:1;stroke:none;font-family:Trebuchet MS;-inkscape-font-specification:Trebuchet MS"
             id="text3072-5">
            <path
               d="m 1196.374,893.86896 c 1.4531,10e-6 2.6953,0.51563 3.7266,1.54687 1.0312,1.03126 1.5468,2.27345 1.5469,3.72657 -10e-5,1.45312 -0.5157,2.70117 -1.5469,3.74414 -1.0313,1.04296 -2.2735,1.56445 -3.7266,1.56445 -1.4531,0 -2.6953,-0.52149 -3.7265,-1.56445 -1.0313,-1.04297 -1.5469,-2.29102 -1.5469,-3.74414 0,-1.45312 0.5156,-2.69531 1.5469,-3.72657 1.0312,-1.03124 2.2734,-1.54686 3.7265,-1.54687 z"
               style="font-size:72px;fill:#6699cc;font-family:Trebuchet MS;-inkscape-font-specification:Trebuchet MS"
               id="path3021" />
            <path
               d="m 1212.6514,884.8338 c 0,-5.81247 1.5644,-10.50583 4.6933,-14.08008 3.1289,-3.57418 7.2481,-5.36129 12.3574,-5.36132 5.3906,3e-5 9.5742,1.71683 12.5508,5.15039 2.9766,3.43362 4.4648,8.19729 4.4649,14.29101 -10e-5,6.07033 -1.5235,10.85743 -4.5703,14.36133 -3.0469,3.50391 -7.1954,5.25586 -12.4454,5.25586 -5.3672,0 -9.5507,-1.76953 -12.5507,-5.30859 -3,-3.53906 -4.5,-8.30859 -4.5,-14.3086 z m 7.0312,0 c 0,9.44532 3.3398,14.16797 10.0195,14.16797 3.1172,0 5.5606,-1.26562 7.3301,-3.79687 1.7695,-2.53124 2.6543,-5.98827 2.6543,-10.3711 0,-9.3281 -3.3281,-13.99215 -9.9844,-13.99219 -3.0468,4e-5 -5.4785,1.24222 -7.2949,3.72657 -1.8164,2.4844 -2.7246,5.90627 -2.7246,10.26562 z"
               style="font-size:72px;fill:#6699cc;font-family:Trebuchet MS;-inkscape-font-specification:Trebuchet MS"
               id="path3023" />
            <path
               d="m 1274.2451,872.52911 c -1.4531,-1.00778 -2.918,-1.51168 -4.3945,-1.51171 -2.3672,3e-5 -4.4356,1.08987 -6.2051,3.26953 -1.7695,2.17971 -2.6543,4.80471 -2.6543,7.875 l 0,21.58593 -6.6797,0 0,-37.65234 6.6797,0 0,6.01172 c 2.4375,-4.47653 6.0586,-6.71481 10.8633,-6.71484 1.1953,3e-5 2.9179,0.21097 5.168,0.63281 z"
               style="font-size:72px;fill:#6699cc;font-family:Trebuchet MS;-inkscape-font-specification:Trebuchet MS"
               id="path3025" />
            <path
               d="m 1280.3975,914.04865 3.6211,-5.34375 c 3.8906,2.60155 7.4765,3.90233 10.7578,3.90234 3.0234,-1e-5 5.4081,-0.52149 7.1543,-1.56445 1.746,-1.04298 2.6191,-2.3379 2.6191,-3.88477 0,-3.04688 -2.2031,-4.57031 -6.6094,-4.57031 -0.75,0 -2.1094,0.1875 -4.0781,0.5625 -1.9688,0.375 -3.5039,0.5625 -4.6055,0.5625 -5.3437,0 -8.0156,-2.01563 -8.0156,-6.04688 0,-1.24218 0.627,-2.36718 1.8809,-3.375 1.2539,-1.0078 2.8066,-1.73436 4.6582,-2.17968 -5.2969,-2.48437 -7.9453,-6.79686 -7.9453,-12.9375 0,-3.93748 1.3711,-7.21872 4.1132,-9.84375 2.7422,-2.62497 6.1289,-3.93747 10.1602,-3.9375 3.7031,3e-5 6.5976,0.76175 8.6836,2.28515 l 3.3398,-4.00781 4.3594,4.11328 -4.0078,3.02344 c 1.7109,2.22659 2.5664,5.13284 2.5664,8.71875 0,3.79689 -1.1836,6.98439 -3.5508,9.5625 -2.3672,2.57813 -5.4727,4.0547 -9.3164,4.42969 l -5.5195,0.5625 c -0.6563,0.0703 -1.5352,0.32227 -2.6367,0.75585 -1.1016,0.43361 -1.6524,1.00197 -1.6524,1.70508 0,0.96095 1.1485,1.44141 3.4453,1.44141 1.0078,0 2.5781,-0.18164 4.711,-0.54492 2.1328,-0.36328 3.7148,-0.54492 4.7461,-0.54492 3.7031,0 6.5917,0.88477 8.666,2.65429 2.0742,1.76954 3.1113,4.22461 3.1113,7.36524 0,3.46874 -1.5528,6.26952 -4.6582,8.40234 -3.1055,2.1328 -7.0371,3.1992 -11.7949,3.19922 -2.4375,-2e-5 -5.0039,-0.43361 -7.6992,-1.30078 -2.6954,-0.8672 -4.8633,-1.92189 -6.5039,-3.16406 z m 14.1679,-43.27735 c -2.3203,3e-5 -4.2129,0.82035 -5.6777,2.46094 -1.4649,1.64065 -2.1973,3.63284 -2.1973,5.97656 0,2.62502 0.709,4.79885 2.127,6.52149 1.4179,1.72267 3.334,2.584 5.748,2.58398 2.3672,2e-5 4.2188,-0.83787 5.5547,-2.51367 1.3359,-1.67576 2.0039,-3.87303 2.0039,-6.5918 0,-2.34372 -0.7207,-4.33591 -2.1621,-5.97656 -1.4414,-1.64059 -3.2402,-2.46091 -5.3965,-2.46094 z"
               style="font-size:72px;fill:#6699cc;font-family:Trebuchet MS;-inkscape-font-specification:Trebuchet MS"
               id="path3027" />
          </g>
        </g>
      </g>
    </g>
  </g>
</svg>
